<svg data-v-423bf9ae="" xmlns="http://www.w3.org/2000/svg" viewBox="0 0 192.6346924396004 60" class="font"><!----><!----><!----><g data-v-423bf9ae="" id="24278810-3d36-4264-bcda-68b7e768a94b" fill="black" transform="matrix(5.9880231086104505,0,0,5.9880231086104505,-2.9341307888310126,-16.107782504799545)"><path d="M1.19 9.60L0.49 9.90C0.78 10.77 1.19 11.45 1.74 11.96C2.28 12.46 2.94 12.71 3.71 12.71C4.63 12.71 5.35 12.45 5.86 11.92C6.37 11.39 6.62 10.76 6.62 10.01C6.62 8.79 5.80 7.85 4.14 7.20C2.61 6.58 1.85 5.84 1.85 4.98C1.85 4.51 2.01 4.13 2.35 3.86C2.68 3.58 3.15 3.44 3.77 3.44C4.32 3.44 4.77 3.62 5.12 3.98C5.47 4.33 5.73 4.76 5.89 5.25L6.57 4.90C6.43 4.33 6.10 3.82 5.60 3.37C5.10 2.91 4.48 2.69 3.75 2.69C2.94 2.69 2.29 2.90 1.79 3.32C1.30 3.74 1.05 4.31 1.05 5.04C1.05 5.67 1.28 6.21 1.75 6.66C2.22 7.12 2.75 7.47 3.36 7.70C3.73 7.85 4.03 7.97 4.24 8.07C4.45 8.17 4.69 8.32 4.98 8.51C5.26 8.71 5.47 8.94 5.61 9.20C5.74 9.46 5.81 9.76 5.81 10.11C5.81 10.62 5.63 11.05 5.26 11.40C4.90 11.74 4.41 11.91 3.81 11.91C3.12 11.91 2.58 11.72 2.20 11.34C1.82 10.96 1.48 10.38 1.19 9.60ZM8.51 2.80L8.51 12.60L9.28 12.60L9.28 7.76L15.09 7.76L15.09 12.60L15.86 12.60L15.86 2.80L15.09 2.80L15.09 7.00L9.28 7.00L9.28 2.80ZM18.17 2.80L18.17 12.60L18.94 12.60L18.94 2.80ZM22.02 7.64L25.73 7.64L25.73 6.92L22.02 6.92L22.02 3.53L25.87 3.53L25.87 2.80L21.25 2.80L21.25 12.60L22.02 12.60ZM26.85 3.53L29.37 3.53L29.37 12.60L30.14 12.60L30.14 3.53L32.66 3.53L32.66 2.80L26.85 2.80Z"></path></g><!----><!----></svg>