<svg data-v-423bf9ae="" xmlns="http://www.w3.org/2000/svg" viewBox="0 0 420 90" class="iconLeft"><!----><!----><!----><g data-v-423bf9ae="" id="59266a09-7c36-47ce-8463-77434fa7491a" fill="black" transform="matrix(5.9880231086104505,0,0,5.9880231086104505,223.77530372044635,-1.1077825047995447)"><path d="M1.19 9.60L0.49 9.90C0.78 10.77 1.19 11.45 1.74 11.96C2.28 12.46 2.94 12.71 3.71 12.71C4.63 12.71 5.35 12.45 5.86 11.92C6.37 11.39 6.62 10.76 6.62 10.01C6.62 8.79 5.80 7.85 4.14 7.20C2.61 6.58 1.85 5.84 1.85 4.98C1.85 4.51 2.01 4.13 2.35 3.86C2.68 3.58 3.15 3.44 3.77 3.44C4.32 3.44 4.77 3.62 5.12 3.98C5.47 4.33 5.73 4.76 5.89 5.25L6.57 4.90C6.43 4.33 6.10 3.82 5.60 3.37C5.10 2.91 4.48 2.69 3.75 2.69C2.94 2.69 2.29 2.90 1.79 3.32C1.30 3.74 1.05 4.31 1.05 5.04C1.05 5.67 1.28 6.21 1.75 6.66C2.22 7.12 2.75 7.47 3.36 7.70C3.73 7.85 4.03 7.97 4.24 8.07C4.45 8.17 4.69 8.32 4.98 8.51C5.26 8.71 5.47 8.94 5.61 9.20C5.74 9.46 5.81 9.76 5.81 10.11C5.81 10.62 5.63 11.05 5.26 11.40C4.90 11.74 4.41 11.91 3.81 11.91C3.12 11.91 2.58 11.72 2.20 11.34C1.82 10.96 1.48 10.38 1.19 9.60ZM8.51 2.80L8.51 12.60L9.28 12.60L9.28 7.76L15.09 7.76L15.09 12.60L15.86 12.60L15.86 2.80L15.09 2.80L15.09 7.00L9.28 7.00L9.28 2.80ZM18.17 2.80L18.17 12.60L18.94 12.60L18.94 2.80ZM22.02 7.64L25.73 7.64L25.73 6.92L22.02 6.92L22.02 3.53L25.87 3.53L25.87 2.80L21.25 2.80L21.25 12.60L22.02 12.60ZM26.85 3.53L29.37 3.53L29.37 12.60L30.14 12.60L30.14 3.53L32.66 3.53L32.66 2.80L26.85 2.80Z"></path></g><!----><g data-v-423bf9ae="" id="842eace0-f462-46ea-981a-7a480e0cac35" transform="matrix(2.2221408031348315,0,0,2.2221408031348315,-7.632207176688269,-65.35787302625475)" stroke="none" fill="black"><path d="M23.762 29.75c-5.371-.004-10.523 2.129-14.324 5.926S3.5 44.62 3.5 49.992a20.265 20.265 0 005.926 14.324A20.254 20.254 0 0044 50 20.27 20.27 0 0023.76 29.75zM17 47a1.812 1.812 0 013.09-1.281c.52.52.672 1.297.39 1.972a1.805 1.805 0 01-1.671 1.118c-.48 0-.938-.188-1.277-.528s-.532-.8-.532-1.28zm12 8.71a6.282 6.282 0 01-5.148 2.462A6.29 6.29 0 0118.7 55.71a1.502 1.502 0 011.375-2.598c.445.13.804.457.976.887a3.339 3.339 0 002.711 1.21A3.331 3.331 0 0026.47 54a1.505 1.505 0 012.098-.344 1.5 1.5 0 01.344 2.094zm-.148-6.897v-.004a1.808 1.808 0 01-1.402-3.055 1.81 1.81 0 111.312 3.055z"></path><path d="M64.172 35.539a20.25 20.25 0 00-22.653-3.93 2.546 2.546 0 00-.328.16c-.34.149-.68.329-1 .512a1.501 1.501 0 00-.613 2v.059l.07.12v.06l.16.171A22.153 22.153 0 0146 50.001a21.35 21.35 0 01-.421 4.288c.113-.015.222-.015.332 0h5.75a1.5 1.5 0 010 3H45.92c-.37 0-.73-.136-1-.39a20.83 20.83 0 01-1.562 3.672 22.24 22.24 0 01-3.418 4.73l-.16.172v.059l-.07.12v-.003.062a1.5 1.5 0 00.609 2c.328.18.672.36 1 .512v-.004c.105.063.215.117.328.16a20.258 20.258 0 0018.05-.808 20.26 20.26 0 0010.22-14.902 20.257 20.257 0 00-5.746-17.13zm-9.41 13.27a1.814 1.814 0 01-1.676-1.117 1.81 1.81 0 112.953.59c-.34.34-.8.527-1.277.527z"></path><path d="M76.238 29.75a20.089 20.089 0 00-8.79 2 8.91 8.91 0 00-1 .52 1.498 1.498 0 00-.468 2.171v.059l.192.191A22.282 22.282 0 0171.71 54.52 6.466 6.466 0 0175 53.371c.242-.016.488-.016.73 0a6.268 6.268 0 015.149 2.457 1.51 1.51 0 01-.34 2.102c-.258.18-.563.277-.88.28a1.51 1.51 0 01-1.218-.632 3.352 3.352 0 00-2.71-1.207 3.74 3.74 0 00-1.372.25 2.733 2.733 0 00-1.34 1 1.498 1.498 0 01-2.098.34.374.374 0 01-.1-.09 21.838 21.838 0 01-4.622 7.43l-.191.191v.059h.003a.974.974 0 00-.113.168 1.502 1.502 0 00.582 2c.34.191.68.36 1 .52a20.227 20.227 0 0017.574.007 20.238 20.238 0 0010.961-13.738A20.252 20.252 0 0076.27 29.75zm4.52 19.059h.003a1.814 1.814 0 01-1.675-1.117A1.81 1.81 0 1182.57 47c0 1-.812 1.808-1.809 1.808z"></path></g><!----></svg>